<?xml version="1.0" encoding="utf-8"?>
<!-- Generator: Adobe Illustrator 16.0.0, SVG Export Plug-In . SVG Version: 6.00 Build 0)  -->
<!DOCTYPE svg PUBLIC "-//W3C//DTD SVG 1.1//EN" "http://www.w3.org/Graphics/SVG/1.1/DTD/svg11.dtd">
<svg version="1.1" id="Layer_1" xmlns="http://www.w3.org/2000/svg" xmlns:xlink="http://www.w3.org/1999/xlink" x="0px" y="0px"
	 width="1000px" height="221.422px" viewBox="-259.994 -57.568 1000 221.422"
	 enable-background="new -259.994 -57.568 1000 221.422" xml:space="preserve">
<path d="M-52.294-42.367h-2.263v-7.238h2.927c2.902,0,4.352,1.166,4.352,3.47c0,1.104-0.37,2.017-1.135,2.708
	C-49.191-42.719-50.479-42.367-52.294-42.367z M-47.66-38.873c-0.789-0.298-2.024-0.444-3.714-0.444h-3.186v7.619h3.348
	c1.87,0,3.123-0.143,3.792-0.439c0.66-0.295,1.195-0.749,1.606-1.369c0.394-0.619,0.591-1.281,0.591-1.985
	c0-0.737-0.212-1.413-0.641-2.019C-46.285-38.119-46.887-38.563-47.66-38.873z M4.472-23.671h-33.549v-33.897H4.472V-23.671z
	 M-2.752-35.186c0-1.559-0.511-2.884-1.539-3.998c-1.016-1.099-2.409-1.836-4.145-2.159c2.423-1.025,3.63-2.725,3.63-5.073
	c0-1.233-0.284-2.302-0.865-3.252c-0.586-0.92-1.425-1.664-2.519-2.203c-1.097-0.529-2.63-0.793-4.594-0.793h-6.226v24.02h8.042
	c1.822,0,3.326-0.297,4.539-0.912c1.21-0.604,2.123-1.383,2.744-2.356C-3.059-32.879-2.752-33.967-2.752-35.186z M-8.718-38.873
	c-0.785-0.298-2.009-0.444-3.711-0.444h-3.17v7.619h3.341c1.869,0,3.125-0.143,3.788-0.439c0.656-0.295,1.188-0.749,1.598-1.369
	c0.4-0.619,0.601-1.281,0.601-1.985c0-0.737-0.215-1.413-0.64-2.019C-7.332-38.119-7.935-38.563-8.718-38.873z M43.638-23.671
	H10.095v-33.897h33.542V-23.671z M36.955-34.213c-2.739,1.792-5.55,2.691-8.43,2.691c-2.759,0-5.02-0.856-6.788-2.547
	c-1.773-1.703-2.654-3.866-2.654-6.51c0-2.603,0.9-4.778,2.706-6.51c1.794-1.751,4.046-2.613,6.764-2.613
	c2.659,0,5.375,0.801,8.156,2.409v-3.689c-3.06-1.328-5.826-1.988-8.315-1.988c-3.616,0-6.661,1.194-9.136,3.571
	c-2.463,2.396-3.694,5.335-3.694,8.821c0,2.205,0.535,4.249,1.619,6.147c1.067,1.896,2.536,3.377,4.387,4.453
	c1.848,1.072,4.096,1.612,6.746,1.612c3.272,0,6.158-0.691,8.642-2.052v-3.794H36.955z M-9.479-43.427
	c0.771-0.691,1.147-1.604,1.147-2.708c0-2.304-1.45-3.47-4.35-3.47h-2.92v7.238h2.256C-11.537-42.367-10.247-42.719-9.479-43.427z
	 M-34.7-23.671h-33.537v-33.897H-34.7V-23.671z M-41.693-35.186c0-1.559-0.521-2.884-1.544-3.998
	c-1.026-1.099-2.408-1.836-4.149-2.159c2.429-1.025,3.632-2.725,3.632-5.073c0-1.233-0.295-2.302-0.869-3.252
	c-0.579-0.92-1.422-1.664-2.519-2.203c-1.096-0.529-2.63-0.793-4.594-0.793h-6.227v24.02h8.047c1.809,0,3.327-0.297,4.534-0.912
	c1.215-0.604,2.125-1.383,2.748-2.356C-42.017-32.879-41.693-33.967-41.693-35.186z M441,74.305
	c-6.93,18.097-14.795,33.76-30.524,40.86c-14.787,6.604-24.857,9.041-56.961,9.041c-64.505,0-63.239-29.117-47.515-69.725
	c25.797-66.531,33.981-69.477,101.326-69.477c69.537,0,57.896,35.97,41.214,75.112l-0.937,2.193h-83.705l-6.604,17.373
	c-2.834,7.105-5.978,16.63,6.604,16.63c11.95,0,16.679-8.557,21.72-22.009H441z M373.346,37.364h26.427l3.154-7.837
	c5.028-12.96,2.823-16.633-6.926-16.633c-8.809,0-14.478,3.674-19.511,16.633L373.346,37.364z M134.515,56.687
	c-21.085,54.564-33.045,67.52-75.525,67.52c-16.367,0-29.583-6.848-30.517-18.831h-0.635L5.499,163.854h-61.043L11.793-11.571
	h60.104L66.23,3.6h0.627c4.41-6.368,15.733-16.628,42.165-16.628C158.431-13.028,150.245,16.321,134.515,56.687z M73.464,20.248
	c-11.956,0-17.304,9.533-27.057,34.48c-9.444,24.715-11.331,34.256,0.625,34.256c11.957,0,17.623-9.541,27.068-34.256
	C83.847,29.781,85.424,20.248,73.464,20.248z M233.114,25.615l-12.583,32.299h17.937l-4.725,11.983
	c-4.721,12.978-11.021,22.011-26.112,22.011c-15.11,0-11.331-12.708-7.248-23.47l27.692-71.933
	c4.101-10.518,9.438-21.522,24.55-21.522c12.28,0,13.535,6.838,8.179,19.813l-2.502,7.096h59.137
	c13.554-34.99,9.456-59.204-52.842-59.204c-76.79,0-84.659,11.498-115.495,91.008c-19.506,49.909-33.046,90.511,30.838,90.511
	c28.637,0,36.497-2.201,52.865-17.614h0.622l-3.771,14.19h43.742l36.811-95.168H233.114z M730.253-13.285
	c-16.687,0-34.313,8.565-45.307,21.286h-0.651l7.563-19.572h-59.157l-50.976,132.352h61.042l26.443-68.496
	c5.966-15.662,14.457-24.214,35.546-24.214c6.304,0,8.81,0,11.337,0.236c2.815,0.251,5.338,0.492,7.556,0.748l16.356-41.614
	C738.431-12.792,736.857-13.285,730.253-13.285z M578.455,101.209c-2.515,6.855-3.458,13.466-1.879,19.573h-57.262
	c-0.33-4.637,0.635-9.527,2.51-13.93l-0.63-0.261c-12.28,12.978-14.164,17.614-46.569,17.614c-28.645,0-40.921-13.934-31.163-39.129
	c11.331-29.379,32.104-37.431,56.639-41.597l30.212-5.131c13.525-2.198,18.884-5.152,22.346-13.716
	c2.523-6.608-1.257-10.261-7.86-10.261c-12.907,0-17.635,7.584-20.45,15.155h-53.498c16.048-42.558,35.554-44.522,85.898-44.522
	c55.707,0,59.801,17.614,51.923,38.169L578.455,101.209z M540.39,56.687c-4.724,1.97-9.77,3.187-17.317,5.133
	c-11.006,2.95-15.095,9.06-17.919,16.888c-3.153,7.838-1.579,13.2,6.913,13.2c11.95,0,17.944-8.549,20.768-16.138L540.39,56.687z
	 M-117.649,124.207c-67.342,0-61.367-33.998-47.52-69.725c22.341-57.248,33.982-69.477,101.335-69.477
	c69.54,0,55.999,37.43,43.419,69.721C-40.876,107.084-50.32,124.207-117.649,124.207z M-75.17,15.588
	c-12.585,0-17.311,8.077-28.949,38.894c-11.959,30.83-13.218,38.907-1.885,38.907c12.263,0,16.989-8.077,28.949-38.907
	C-65.414,23.665-64.155,15.588-75.17,15.588z M-100.775-16.467l15.739-41.101h-148.527l-15.728,41.101h42.788l-53.49,137.248h62.93
	l53.499-137.248H-100.775z"/>
</svg>
